<?xml version="1.0" standalone="no"?>
<!DOCTYPE svg PUBLIC "-//W3C//DTD SVG 20010904//EN"
 "http://www.w3.org/TR/2001/REC-SVG-20010904/DTD/svg10.dtd">
<svg version="1.0" xmlns="http://www.w3.org/2000/svg"
 width="535.000000pt" height="466.000000pt" viewBox="0 0 535.000000 466.000000"
 preserveAspectRatio="xMidYMid meet">

<g transform="translate(0.000000,466.000000) scale(0.100000,-0.100000)"
fill="#000000" stroke="none">
<path d="M1090 3859 c-85 -168 -134 -355 -149 -567 -19 -271 24 -520 140 -804
l40 -97 -50 -74 c-94 -140 -140 -250 -157 -379 -4 -26 -11 -48 -16 -48 -15 0
-413 -62 -416 -65 -2 -1 7 -51 19 -110 l23 -107 45 6 c25 4 115 17 199 30 83
12 152 21 152 20 0 -1 7 -37 15 -80 8 -43 14 -78 12 -79 -1 -1 -80 -48 -175
-105 -95 -57 -171 -106 -170 -109 37 -76 99 -191 103 -191 3 0 70 40 148 90
79 49 150 92 159 95 11 4 27 -13 57 -64 228 -384 629 -623 1201 -716 139 -23
406 -34 592 -25 429 22 793 133 1094 336 139 93 326 303 390 437 10 20 22 37
27 37 5 0 78 -43 164 -96 85 -52 156 -94 158 -92 1 2 25 46 53 98 l51 96 -175
104 -175 105 6 40 c3 22 10 57 16 79 l10 38 62 -6 c34 -4 120 -16 191 -28 70
-11 132 -16 136 -11 7 8 52 205 47 208 -1 1 -96 17 -212 35 -115 18 -211 33
-213 35 -1 1 -7 31 -13 66 -19 123 -59 215 -155 360 -24 37 -44 71 -44 76 0 6
13 39 29 74 109 242 157 491 148 766 -8 240 -50 417 -143 611 l-44 92 -48 0
c-60 0 -198 -31 -282 -63 -263 -99 -573 -328 -835 -617 l-110 -121 -115 8
c-145 10 -227 10 -365 0 l-111 -8 -104 113 c-359 387 -694 609 -1028 677 -29
6 -73 11 -97 11 l-45 0 -40 -81z m1039 -1398 c104 -54 150 -182 101 -289 -77
-170 -319 -175 -400 -7 -25 52 -28 135 -7 187 48 115 193 166 306 109z m1346
-1 c108 -67 144 -187 90 -297 -56 -112 -182 -153 -296 -95 -104 52 -149 181
-100 288 22 49 90 109 139 123 49 13 129 4 167 -19z m-555 -645 c0 -3 -35 -74
-77 -159 l-77 -155 24 -51 c27 -58 96 -127 161 -161 37 -20 59 -24 139 -24 82
0 102 3 144 25 98 50 170 147 184 247 l7 48 59 3 58 3 -7 -53 c-21 -153 -112
-277 -256 -350 -57 -28 -76 -32 -164 -36 -114 -5 -192 15 -277 70 -37 23 -105
93 -134 137 -2 1 -31 -27 -65 -63 -45 -49 -81 -76 -137 -104 -75 -37 -77 -37
-197 -37 -117 0 -122 1 -190 34 -120 59 -207 166 -241 296 -8 28 -14 62 -14
78 0 26 2 27 55 27 l54 0 6 -37 c23 -134 108 -238 230 -280 72 -24 186 -14
254 22 61 34 120 97 152 163 l22 45 -76 153 c-42 83 -77 155 -77 158 0 3 99 6
220 6 121 0 220 -2 220 -5z"/>
</g>
</svg>
