<svg width="279" height="300" viewBox="0 0 279 300" fill="none" xmlns="http://www.w3.org/2000/svg">
<path d="M278.013 227.346C238.394 292.211 155.303 317.824 85.276 284.274C10.5651 248.48 -20.9834 158.898 14.8105 84.1876C37.8125 36.1764 83.0276 5.99217 132.234 0.0473938C111.527 13.144 94.1316 32.0317 82.7645 55.7578C50.55 122.998 78.9437 203.621 146.183 235.836C190.165 256.907 239.872 252.046 278.013 227.346Z" fill="#474B4A"/>
<path d="M167.5 90.5H202C176.695 86.0394 171.003 72.3006 167.5 39V90.5Z" fill="#474B4A"/>
<path d="M167.5 90.5H202C176.695 94.9606 171.003 108.699 167.5 142V90.5Z" fill="#474B4A"/>
<path d="M167.5 90.5H133C158.305 86.0394 163.997 72.3006 167.5 39V90.5Z" fill="#474B4A"/>
<path d="M167.5 90.5H133C158.305 94.9606 163.997 108.699 167.5 142V90.5Z" fill="#474B4A"/>
<path d="M250 53.5H270C255.33 50.252 252.031 40.248 250 16V53.5Z" fill="#474B4A"/>
<path d="M250 53.5H270C255.33 56.748 252.031 66.752 250 91V53.5Z" fill="#474B4A"/>
<path d="M250 53.5H230C244.67 50.252 247.969 40.248 250 16V53.5Z" fill="#474B4A"/>
<path d="M250 53.5H230C244.67 56.748 247.969 66.752 250 91V53.5Z" fill="#474B4A"/>
<path d="M230 172H258C237.462 168.709 232.843 158.571 230 134V172Z" fill="#474B4A"/>
<path d="M230 172H258C237.462 175.291 232.843 185.429 230 210V172Z" fill="#474B4A"/>
<path d="M230 172H202C222.538 168.709 227.157 158.571 230 134V172Z" fill="#474B4A"/>
<path d="M230 172H202C222.538 175.291 227.157 185.429 230 210V172Z" fill="#474B4A"/>
</svg>
