<svg width="300" height="1130" viewBox="0 0 300 1130" fill="none" xmlns="http://www.w3.org/2000/svg">
<path d="M300 150C300 232.843 232.843 300 150 300C67.1573 300 0 232.843 0 150C0 67.1573 67.1573 0 150 0C232.843 0 300 67.1573 300 150Z" fill="#474B4A"/>
<path d="M300 565C300 647.843 232.843 715 150 715C67.1573 715 0 647.843 0 565C0 482.157 67.1573 415 150 415C232.843 415 300 482.157 300 565Z" fill="#474B4A"/>
<path d="M300 980C300 1062.84 232.843 1130 150 1130C67.1573 1130 0 1062.84 0 980C0 897.157 67.1573 830 150 830C232.843 830 300 897.157 300 980Z" fill="#474B4A"/>
</svg>
